<svg 
 xmlns="http://www.w3.org/2000/svg"
 xmlns:xlink="http://www.w3.org/1999/xlink"
 width="41px" height="42px">
<path fill-rule="evenodd"  fill="rgb(255, 255, 255)"
 d="M40.354,40.646 C40.354,40.646 39.646,41.354 39.646,41.354 C39.646,41.354 19.503,21.210 19.503,21.210 C19.503,21.210 0.703,40.010 0.703,40.010 C0.703,40.010 -0.010,39.297 -0.010,39.297 C-0.010,39.297 18.790,20.497 18.790,20.497 C18.790,20.497 0.646,2.354 0.646,2.354 C0.646,2.354 1.354,1.646 1.354,1.646 C1.354,1.646 19.497,19.790 19.497,19.790 C19.497,19.790 39.297,-0.010 39.297,-0.010 C39.297,-0.010 40.010,0.703 40.010,0.703 C40.010,0.703 20.210,20.503 20.210,20.503 C20.210,20.503 40.354,40.646 40.354,40.646 Z"/>
</svg>