<?xml version="1.0" encoding="utf-8"?>
<!-- Generator: Adobe Illustrator 18.0.0, SVG Export Plug-In . SVG Version: 6.00 Build 0)  -->
<!DOCTYPE svg PUBLIC "-//W3C//DTD SVG 1.1//EN" "http://www.w3.org/Graphics/SVG/1.1/DTD/svg11.dtd">
<svg version="1.1" id="Layer_1" xmlns="http://www.w3.org/2000/svg" xmlns:xlink="http://www.w3.org/1999/xlink" x="0px" y="0px"
	 viewBox="0 0 32 32" enable-background="new 0 0 32 32" xml:space="preserve">
<path fill="#FFFFFF" d="M31.7,12.8c-0.2-1-0.5-2-0.9-3c-0.4-0.9-0.9-1.9-1.5-2.7c-0.6-0.8-1.2-1.6-2-2.4c-0.7-0.7-1.5-1.4-2.4-2
	c-0.9-0.6-1.8-1.1-2.7-1.5c-1-0.4-2-0.7-3-0.9C18.2,0.1,17.1,0,16,0c-1.1,0-2.2,0.1-3.2,0.3c-1,0.2-2,0.5-3,0.9
	C8.8,1.7,7.9,2.2,7.1,2.7C6.2,3.3,5.4,4,4.7,4.7C4,5.4,3.3,6.2,2.7,7.1C2.2,7.9,1.7,8.8,1.3,9.8c-0.4,1-0.7,2-0.9,3
	C0.1,13.8,0,14.9,0,16c0,1.1,0.1,2.2,0.3,3.2c0.2,1,0.5,2,0.9,3c0.4,0.9,0.9,1.9,1.5,2.7c0.6,0.8,1.2,1.6,2,2.4
	c0.7,0.7,1.5,1.4,2.4,2c0.9,0.6,1.8,1.1,2.7,1.5c1,0.4,2,0.7,3,0.9c1.1,0.2,2.1,0.3,3.2,0.3c1.1,0,2.2-0.1,3.2-0.3
	c1-0.2,2-0.5,3-0.9c0.9-0.4,1.9-0.9,2.7-1.5c0.8-0.6,1.6-1.2,2.4-2c0.7-0.7,1.4-1.5,2-2.4c0.6-0.9,1.1-1.8,1.5-2.7
	c0.4-1,0.7-2,0.9-3c0.2-1.1,0.3-2.1,0.3-3.2C32,14.9,31.9,13.8,31.7,12.8z M29.7,15.9c-0.2,0-4.8-1-9.5-0.4
	c-0.1-0.2-0.2-0.5-0.3-0.7c-0.3-0.7-0.6-1.3-0.9-2c5.4-2.2,7.6-5.4,7.6-5.4C28.5,9.6,29.6,12.6,29.7,15.9z M25,5.7
	c0,0.1-2,3-7.1,4.9c-2.3-4.3-4.9-7.7-5.1-8c1-0.3,2.1-0.4,3.2-0.4C19.5,2.3,22.6,3.6,25,5.7z M12.7,2.7C12.7,2.7,12.7,2.7,12.7,2.7
	C12.7,2.7,12.7,2.7,12.7,2.7C12.7,2.7,12.7,2.7,12.7,2.7z M10.2,3.6c0.2,0.2,2.7,3.7,5.1,7.9C8.7,13.3,3,13.2,2.6,13.2
	C3.5,9,6.4,5.4,10.2,3.6z M2.3,16c0-0.1,0-0.3,0-0.4c0.2,0,7,0.2,14-1.9c0.4,0.8,0.8,1.5,1.1,2.3c-0.2,0.1-0.4,0.1-0.5,0.2
	c-7.4,2.4-11.1,9-11.1,9s0,0,0,0C3.7,22.7,2.3,19.5,2.3,16z M16,29.7c-3.3,0-6.3-1.2-8.7-3.1c0.2,0.1,0.3,0.2,0.3,0.2
	s2.6-5.7,10.7-8.5c0,0,0.1,0,0.1,0c1.9,5,2.7,9.2,2.9,10.4C19.7,29.3,17.9,29.7,16,29.7z M23.6,27.3c-0.1-0.8-0.9-4.8-2.7-9.8
	c4.4-0.7,8.2,0.5,8.5,0.6C28.9,22,26.7,25.3,23.6,27.3z"/>
</svg>
