<?xml version="1.0" encoding="utf-8"?>
<!-- Generator: Adobe Illustrator 18.0.0, SVG Export Plug-In . SVG Version: 6.00 Build 0)  -->
<!DOCTYPE svg PUBLIC "-//W3C//DTD SVG 1.1//EN" "http://www.w3.org/Graphics/SVG/1.1/DTD/svg11.dtd">
<svg version="1.1" id="Layer_1" xmlns="http://www.w3.org/2000/svg" xmlns:xlink="http://www.w3.org/1999/xlink" x="0px" y="0px"
	 viewBox="0 0 32 32" enable-background="new 0 0 32 32" xml:space="preserve">
<path fill="#FFFFFF" d="M30,32H2c-1.1,0-2-0.9-2-2V2c0-1.1,0.9-2,2-2h28c1.1,0,2,0.9,2,2v28C32,31.1,31.1,32,30,32z M16,11
	c-2.8,0-5,2.2-5,5c0,2.8,2.2,5,5,5s5-2.2,5-5C21,13.2,18.8,11,16,11z M29,4.7C29,3.7,28.3,3,27.3,3h-1.7C24.7,3,24,3.7,24,4.7v1.7
	C24,7.3,24.7,8,25.7,8h1.7C28.3,8,29,7.3,29,6.3V4.7z M29,14h-5.3c0.2,0.6,0.3,1.3,0.3,2c0,4.4-3.6,8-8,8s-8-3.6-8-8
	c0-0.7,0.1-1.4,0.3-2H8V2H7v12H6V2H5v12H4V2H3v12v15h26V14z"/>
</svg>
