<?xml version="1.0" encoding="utf-8"?>
<!-- Generator: Adobe Illustrator 18.0.0, SVG Export Plug-In . SVG Version: 6.00 Build 0)  -->
<!DOCTYPE svg PUBLIC "-//W3C//DTD SVG 1.1//EN" "http://www.w3.org/Graphics/SVG/1.1/DTD/svg11.dtd">
<svg version="1.1" id="Layer_1" xmlns="http://www.w3.org/2000/svg" xmlns:xlink="http://www.w3.org/1999/xlink" x="0px" y="0px"
	 viewBox="0 0 31 31" enable-background="new 0 0 31 31" xml:space="preserve">
<path fill="#FFFFFF" d="M24,31l-0.1-10.6c0-2.7-0.7-4.5-3.1-4.5c-1.9,0-3.2,1.2-3.6,2.4c-0.2,0.4-0.2,1-0.2,1.6L17,31h-7
	c0,0,0.1-19.1,0-21h7l-0.1,3.9c0,0,0,0,0,0.1h0v-0.1c0.9-1.4,3.5-3.9,7.1-3.9c4.5,0,7,3.9,7,10v11H24z M0,10h7v21H0V10z M3.5,7
	C1.6,7,0,5.4,0,3.5S1.6,0,3.5,0S7,1.6,7,3.5S5.4,7,3.5,7z"/>
</svg>
