<?xml version="1.0" encoding="utf-8"?>
<!-- Generator: Adobe Illustrator 18.0.0, SVG Export Plug-In . SVG Version: 6.00 Build 0)  -->
<!DOCTYPE svg PUBLIC "-//W3C//DTD SVG 1.1//EN" "http://www.w3.org/Graphics/SVG/1.1/DTD/svg11.dtd">
<svg version="1.1" id="Layer_1" xmlns="http://www.w3.org/2000/svg" xmlns:xlink="http://www.w3.org/1999/xlink" x="0px" y="0px"
	 viewBox="0 0 32 32" enable-background="new 0 0 32 32" xml:space="preserve">
<path fill="#FFFFFF" d="M13,19.7c6.6,0.2,12.5,3.6,16.7,8.8c-2.4,1.6-5.1,2.8-8,3.4c-2.5-2.5-5.4-4-8.6-4.1
	c-2.3-0.1-4.4,0.6-6.4,1.8c-2.6-1.5-4.9-3.5-6.7-5.9C3.8,21.1,8.3,19.6,13,19.7z M3.1,3.1c-0.2-0.9,0.2-1.8,1.1-2
	c0.1,0,4.5-1.3,10.6-1.1c1,0,2.1,0.1,3.2,0.2c7.5,0.9,13.1,4.5,13.2,4.5c0.7,0.5,1,1.5,0.5,2.2c-0.3,0.5-0.9,0.8-1.4,0.8
	c-0.3,0-0.5-0.1-0.8-0.2c0,0-0.1,0-0.2-0.1C29.2,7.3,29,7.2,28.7,7c-0.6-0.3-1.4-0.8-2.5-1.2c-2.1-0.9-5.1-2-8.5-2.3
	c-1-0.1-2-0.2-3-0.2C9.7,3.1,6,4,5.2,4.2c-0.1,0-0.2,0-0.2,0C4.2,4.5,3.3,4,3.1,3.1z M13.4,13.8c0.8,0,1.5,0.1,2.4,0.2
	c5.5,0.7,9.6,3.3,9.7,3.3l0,0c0.5,0.3,0.6,1,0.3,1.5c-0.2,0.3-0.6,0.5-0.9,0.5c-0.2,0-0.4-0.1-0.5-0.2c0,0-0.2-0.1-0.6-0.4
	c-0.4-0.2-1.1-0.6-1.9-0.9c-1.6-0.7-3.8-1.4-6.3-1.7C14.7,16,14,16,13.3,15.9c-3.1-0.1-5.6,0.4-6.6,0.6c-0.3,0.1-0.5,0.1-0.5,0.1
	c-0.6,0.2-1.1-0.2-1.3-0.7c-0.2-0.6,0.2-1.2,0.7-1.3C5.6,14.6,8.8,13.6,13.4,13.8z M4.4,9.6C4.2,8.9,4.6,8.2,5.3,8
	c0.1,0,3.8-1.1,9-0.9c0.9,0,1.8,0.1,2.7,0.2C23.4,8,28.1,11,28.2,11.1c0.6,0.4,0.8,1.2,0.4,1.9c-0.3,0.4-0.7,0.6-1.2,0.6
	c-0.2,0-0.5-0.1-0.7-0.2c0,0,0,0-0.2-0.1c-0.1-0.1-0.3-0.2-0.6-0.3c-0.5-0.3-1.2-0.6-2.1-1c-1.8-0.8-4.4-1.7-7.2-2
	c-0.9-0.1-1.7-0.2-2.5-0.2c-3.6-0.1-6.5,0.4-7.6,0.7C6.2,10.5,6,10.6,6,10.6C5.3,10.8,4.6,10.4,4.4,9.6z"/>
</svg>
